<?xml version="1.0" encoding="UTF-8" standalone="no"?>
<svg
   version="1.1"
   id="Layer_1"
   x="0px"
   y="0px"
   width="100%"
   viewBox="0 0 500 507"
   enable-background="new 0 0 500 507"
   xml:space="preserve"
   sodipodi:docname="Dobiz Arabia Icon vector.svg"
   inkscape:version="1.4.2 (f4327f4, 2025-05-13)"
   xmlns:inkscape="http://www.inkscape.org/namespaces/inkscape"
   xmlns:sodipodi="http://sodipodi.sourceforge.net/DTD/sodipodi-0.dtd"
   xmlns="http://www.w3.org/2000/svg"
   xmlns:svg="http://www.w3.org/2000/svg"><defs
   id="defs85" /><sodipodi:namedview
   id="namedview85"
   pagecolor="#ffffff"
   bordercolor="#000000"
   borderopacity="0.25"
   inkscape:showpageshadow="2"
   inkscape:pageopacity="0.0"
   inkscape:pagecheckerboard="0"
   inkscape:deskcolor="#d1d1d1"
   inkscape:zoom="1.5443787"
   inkscape:cx="249.9387"
   inkscape:cy="253.5"
   inkscape:window-width="1680"
   inkscape:window-height="1027"
   inkscape:window-x="-8"
   inkscape:window-y="-8"
   inkscape:window-maximized="1"
   inkscape:current-layer="Layer_1" />
<path
   fill="#000000"
   opacity="1.000000"
   stroke="none"
   d=" M1.000000,3.000000   C1.333333,2.333333 1.666667,1.666667 2.754091,1.343967   C4.658764,1.794672 5.809340,1.994835 6.959930,1.994915   C168.600769,2.006156 330.241608,2.005913 491.882446,1.958760   C493.588379,1.958262 495.294159,1.333393 497.000000,1.000000   C498.333344,1.000000 499.666656,1.000000 501.000000,1.000000   C501.000000,168.666672 501.005432,336.333344 500.897186,503.999939   C500.896362,505.252441 502.962952,508.314819 498.337006,507.680908   C497.734009,506.897186 497.794006,506.432526 497.899597,505.504913   C497.959290,504.708954 497.985779,504.376007 497.985779,504.043030   C497.991669,338.904388 497.998413,173.765732 497.959778,8.627099   C497.959412,7.070283 497.354156,5.513610 497.024719,3.983450   C497.018127,4.010031 497.059448,3.973865 496.968506,3.749512   C496.676910,3.210011 496.395142,3.096862 495.564758,3.128652   C494.264771,3.057662 493.432343,3.031538 492.599884,3.031527   C332.235291,3.029514 171.870682,3.028913 11.506073,3.035780   C10.009978,3.035844 8.513887,3.136361 6.618339,3.125247   C2.819061,2.552222 2.777053,4.611856 3.130427,7.478819   C3.055735,8.770094 3.028870,9.602580 3.028860,10.435067   C3.026807,173.474854 3.026214,336.514648 3.033146,499.554443   C3.033210,501.050507 3.134774,502.546570 3.128945,504.411560   C3.277072,505.464020 3.485204,506.147583 3.039704,507.094757   C1.924381,507.271179 1.462689,507.183929 1.299903,506.707214   C1.732543,504.665710 1.983223,503.013672 1.983402,501.361603   C2.001190,336.950684 2.003073,172.539764 1.958628,8.128847   C1.958166,6.419145 1.333348,4.709612 1.000000,3.000000  z"
   id="path1" />
<path
   fill="#598938"
   opacity="1.000000"
   stroke="none"
   d=" M497.854004,505.967896   C497.794006,506.432526 497.734009,506.897186 497.837006,507.680908   C332.333344,508.000000 166.666672,508.000000 1.000500,507.524170   C1.001000,507.048370 1.001000,507.096680 1.000999,507.096680   C1.462689,507.183929 1.924381,507.271179 3.100238,506.852356   C3.605917,505.578400 3.397430,504.810516 3.188946,504.042633   C3.134774,502.546570 3.033210,501.050507 3.033146,499.554443   C3.026214,336.514648 3.026807,173.474854 3.028860,10.435067   C3.028870,9.602580 3.055735,8.770094 3.480348,7.634948   C4.260728,9.545267 4.954125,11.758142 4.954820,13.971237   C5.005343,174.774246 5.000832,335.577271 5.001534,496.380280   C5.001542,498.046570 4.549356,499.907410 5.145829,501.324982   C5.754041,502.770477 7.203069,504.237427 8.643483,504.850983   C10.055903,505.452576 11.920785,504.996796 13.587080,504.996826   C174.723373,505.000397 335.859650,505.003265 497.105530,505.194458   C497.387421,505.622223 497.600372,505.817261 497.854004,505.967896  z"
   id="path2" />
<path
   fill="#486D24"
   opacity="1.000000"
   stroke="none"
   d=" M1.299904,506.707214   C1.001000,507.096680 1.001000,507.048370 1.000500,507.024170   C1.000000,339.311310 1.000000,171.622650 1.000000,3.466985   C1.333348,4.709612 1.958166,6.419145 1.958628,8.128847   C2.003073,172.539764 2.001190,336.950684 1.983402,501.361603   C1.983223,503.013672 1.732543,504.665710 1.299904,506.707214  z"
   id="path3" />
<path
   fill="#486D24"
   opacity="1.000000"
   stroke="none"
   d=" M496.531342,1.000000   C495.294159,1.333393 493.588379,1.958262 491.882446,1.958760   C330.241608,2.005913 168.600769,2.006156 6.959930,1.994915   C5.809340,1.994835 4.658764,1.794672 3.254091,1.343967   C167.354233,1.000000 331.708466,1.000000 496.531342,1.000000  z"
   id="path4" />
<path
   fill="#538336"
   opacity="1.000000"
   stroke="none"
   d=" M496.995941,505.006104   C335.859650,505.003265 174.723373,505.000397 13.587080,504.996826   C11.920785,504.996796 10.055903,505.452576 8.643483,504.850983   C7.203069,504.237427 5.754041,502.770477 5.145829,501.324982   C4.549356,499.907410 5.001542,498.046570 5.001534,496.380280   C5.000832,335.577271 5.005343,174.774246 4.954820,13.971237   C4.954125,11.758142 4.260728,9.545267 3.540717,7.176160   C2.777053,4.611856 2.819061,2.552222 6.774943,3.475131   C9.209091,4.260120 11.087086,4.954266 12.965279,4.954804   C174.307922,5.001049 335.650574,4.993694 496.995422,5.459013   C496.997070,172.287308 496.996521,338.646698 496.995941,505.006104  M489.116699,351.117462   C489.369354,342.740540 489.621979,334.363647 489.922211,325.052307   C489.897980,314.028229 489.873779,303.004150 489.921356,291.048615   C489.886261,280.689331 489.851166,270.330078 489.883942,259.039703   C489.908051,255.581146 490.027130,252.120117 489.936737,248.664551   C489.739471,241.125244 489.435638,233.588730 489.322052,225.226120   C489.470215,216.475906 489.618378,207.725708 489.858673,198.046051   C489.823334,191.023270 489.787964,184.000504 489.852753,176.051941   C489.814484,171.031799 489.776215,166.011673 489.861755,160.065704   C489.815765,155.035126 489.769775,150.004562 489.834442,144.046585   C489.793549,135.356720 489.752655,126.666847 489.837036,117.050163   C489.792175,108.361061 489.747345,99.671959 489.831726,90.055656   C489.786896,82.365723 489.742065,74.675797 489.828583,66.058426   C489.782013,58.366322 489.735474,50.674221 489.817871,42.055008   C489.847870,33.086781 489.741486,24.115000 489.975128,15.152082   C490.068420,11.574119 488.716248,10.626147 485.337708,10.673222   C471.555878,10.865253 457.770966,10.834669 443.055786,10.783442   C428.700287,10.819164 414.344788,10.854887 399.056854,10.797191   C386.034058,10.829316 373.011261,10.861442 359.055481,10.808451   C344.032227,10.840126 329.008942,10.871800 313.052551,10.826640   C297.697845,10.853913 282.343140,10.881186 266.054993,10.849447   C257.035034,10.870716 248.015091,10.891986 238.059799,10.854996   C227.036758,10.878870 216.013718,10.902745 204.056473,10.876508   C194.033920,10.894541 184.011368,10.912574 173.053864,10.881001   C160.032639,10.901204 147.011429,10.921406 133.055847,10.904537   C124.368782,10.918806 115.681709,10.933074 106.058525,10.909854   C95.369316,10.926532 84.680107,10.943209 73.056068,10.926654   C63.368332,10.939387 53.680599,10.952121 43.057552,10.935179   C35.036461,10.945788 27.015371,10.956399 18.122412,10.937017   C16.087437,10.948374 14.052461,10.959731 11.567406,11.207916   C11.368697,11.477900 11.169989,11.747883 10.941601,12.950500   C10.953149,18.301613 10.964696,23.652727 10.949332,29.940384   C10.961664,38.627274 10.973996,47.314163 10.961398,56.937988   C10.969818,68.291862 10.978238,79.645737 10.966372,91.936821   C10.973115,103.290550 10.979857,114.644287 10.968417,126.935448   C10.973210,138.955750 10.978004,150.976044 10.965016,163.933990   C10.970130,175.953583 10.975244,187.973175 10.961961,200.931503   C10.965480,212.618195 10.968998,224.304901 10.949396,236.930496   C10.951818,248.282120 10.954239,259.633759 10.930568,271.925476   C10.943150,281.614319 10.955731,291.303162 10.928109,301.929718   C10.918933,365.375885 10.908568,428.822052 10.902308,492.268219   C10.901641,499.036163 10.912749,499.045319 17.772251,499.045532   C95.706207,499.047729 173.640152,499.055725 251.574112,499.042755   C284.046051,499.037354 316.518005,498.985718 349.927734,499.019531   C363.283051,499.000305 376.638367,498.981049 390.931396,499.016876   C401.618744,498.999908 412.306122,498.982941 423.930695,499.011780   C434.285217,498.996063 444.639709,498.980347 455.932037,499.009705   C464.286346,498.995850 472.640656,498.981995 481.900604,499.008728   C490.044586,499.058136 490.047546,499.058105 489.967133,490.994202   C489.957214,489.997406 489.895355,489.001160 489.917480,487.069427   C489.902069,481.049042 489.886658,475.028687 489.926605,468.071533   C489.912048,457.050415 489.897491,446.029327 489.945343,434.070801   C489.926514,423.047180 489.907684,412.023529 489.945618,400.063843   C489.926697,391.041687 489.907776,382.019562 489.947571,372.062439   C489.668365,365.376495 489.389160,358.690552 489.116699,351.117462  M4.466593,4.495026   C4.466593,4.495026 4.515675,4.474335 4.466593,4.495026  z"
   id="path5" />
<path
   fill="#598938"
   opacity="1.000000"
   stroke="none"
   d=" M496.993225,4.990108   C335.650574,4.993694 174.307922,5.001049 12.965279,4.954804   C11.087086,4.954266 9.209091,4.260120 7.174399,3.539864   C8.513887,3.136361 10.009978,3.035844 11.506073,3.035780   C171.870682,3.028913 332.235291,3.029514 492.599884,3.031527   C493.432343,3.031538 494.264771,3.057662 495.708801,3.292998   C496.534698,3.719053 496.781067,3.872207 497.059448,3.973865   C497.059448,3.973865 497.018127,4.010031 497.013824,4.241759   C497.004089,4.645695 496.998657,4.817902 496.993225,4.990108  z"
   id="path6" />
<path
   fill="#5F7F3F"
   opacity="1.000000"
   stroke="none"
   d=" M496.995422,5.459013   C496.998657,4.817902 497.004089,4.645695 497.020416,4.215179   C497.354156,5.513610 497.959412,7.070283 497.959778,8.627099   C497.998413,173.765732 497.991669,338.904388 497.985779,504.043030   C497.985779,504.376007 497.959290,504.708954 497.899597,505.504913   C497.600372,505.817261 497.387421,505.622223 497.105530,505.194458   C496.996521,338.646698 496.997070,172.287308 496.995422,5.459013  z"
   id="path7" />
<path
   fill="#538336"
   opacity="1.000000"
   stroke="none"
   d=" M3.128941,504.411560   C3.397430,504.810516 3.605917,505.578400 3.753870,506.588684   C3.485204,506.147583 3.277072,505.464020 3.128941,504.411560  z"
   id="path8" />
<path
   fill="#538336"
   opacity="1.000000"
   stroke="none"
   d=" M496.968506,3.749512   C496.781067,3.872207 496.534698,3.719053 496.176331,3.350059   C496.395142,3.096862 496.676910,3.210011 496.968506,3.749512  z"
   id="path9" />
<path
   fill="#01823B"
   opacity="1.000000"
   stroke="none"
   d=" M348.989960,498.955109   C316.518005,498.985718 284.046051,499.037354 251.574112,499.042755   C173.640152,499.055725 95.706207,499.047729 17.772251,499.045532   C10.912749,499.045319 10.901641,499.036163 10.902308,492.268219   C10.908568,428.822052 10.918933,365.375885 11.295471,301.523315   C33.140026,313.536804 54.617214,325.956757 76.985504,338.891998   C76.985504,328.126648 76.985504,318.056976 76.986771,307.519470   C76.985794,296.030884 76.983559,285.010132 76.984879,273.524536   C77.369980,268.367340 77.751518,263.674957 78.232025,259.443237   C78.330978,320.836700 78.330978,381.769501 78.330978,443.259125   C140.898178,443.864532 202.947906,444.464935 264.936951,445.416870   C263.804626,448.268372 264.204590,449.972107 266.843719,451.481537   C290.790894,465.177856 314.665924,479.000458 338.555084,492.798157   C342.052155,494.817963 345.512573,496.901215 348.989960,498.955109  z"
   id="path10" />
<path
   fill="#84C07C"
   opacity="1.000000"
   stroke="none"
   d=" M266.988434,10.908461   C282.343140,10.881186 297.697845,10.853913 313.522308,11.273619   C313.342194,15.420267 315.801483,17.121683 318.477661,18.662743   C338.629211,30.266836 358.799744,41.838051 378.935089,53.470245   C412.299774,72.745018 445.648102,92.048080 478.986450,111.368362   C482.618378,113.473137 486.139343,115.769478 489.711761,117.976974   C489.752655,126.666847 489.793549,135.356720 489.447632,144.490982   C479.303802,138.755737 469.708954,132.300186 459.757629,126.451080   C435.412872,112.141914 410.915833,98.091438 386.456604,83.977516   C363.296204,70.613060 340.095215,57.319038 316.932648,43.958370   C301.535492,35.076977 286.112091,26.236732 270.877960,17.082642   C269.016815,15.964281 268.258057,13.011251 266.988434,10.908461  z"
   id="path11" />
<path
   fill="#8DC480"
   opacity="1.000000"
   stroke="none"
   d=" M489.774414,117.513565   C486.139343,115.769478 482.618378,113.473137 478.986450,111.368362   C445.648102,92.048080 412.299774,72.745018 378.935089,53.470245   C358.799744,41.838051 338.629211,30.266836 318.477661,18.662743   C315.801483,17.121683 313.342194,15.420267 313.988892,11.312036   C329.008942,10.871800 344.032227,10.840126 359.524536,11.255613   C361.163818,13.695672 361.845276,16.488682 363.584015,17.550804   C374.370422,24.139671 385.385651,30.354799 396.341003,36.666103   C419.834534,50.200603 443.358185,63.683071 466.825562,77.262688   C474.520874,81.715652 482.080719,86.402794 489.702484,90.982857   C489.747345,99.671959 489.792175,108.361061 489.774414,117.513565  z"
   id="path12" />
<path
   fill="#7BBB78"
   opacity="1.000000"
   stroke="none"
   d=" M204.990677,10.926619   C216.013718,10.902745 227.036758,10.878870 238.531281,11.274260   C240.005280,13.462287 240.594620,15.801455 242.092468,16.886383   C245.711624,19.507851 249.739487,21.570593 253.629791,23.811335   C276.974762,37.257561 300.344421,50.660877 323.672699,64.135979   C347.577515,77.944115 371.430969,91.841141 395.331360,105.656982   C420.382172,120.137833 445.488220,134.523315 470.511353,149.051712   C477.032684,152.837982 483.335052,157.001358 489.737976,160.991531   C489.776215,166.011673 489.814484,171.031799 489.459839,176.500580   C486.986389,175.438141 485.017273,173.736084 482.807007,172.447556   C470.201843,165.099045 457.532166,157.861252 444.898254,150.561874   C433.982635,144.255219 423.162354,137.776169 412.106873,131.726028   C410.193542,130.678940 407.318665,131.388840 404.599518,131.102539   C384.956055,108.025124 361.525238,90.662086 333.487457,79.983757   C321.922394,75.579124 309.840271,72.532104 297.908691,68.513756   C295.813721,65.038383 293.400909,65.444878 290.506470,67.319046   C289.797302,67.165848 289.397583,67.053970 288.934174,66.600868   C286.795563,63.976116 285.111694,61.041351 282.578888,59.520267   C270.765289,52.425629 258.703125,45.745899 246.756836,38.870895   C234.380096,31.748169 221.954712,24.702784 209.751480,17.292730   C207.650620,16.017046 206.552170,13.090553 204.990677,10.926619  z"
   id="path13" />
<path
   fill="#7EBD79"
   opacity="1.000000"
   stroke="none"
   d=" M489.799866,160.528625   C483.335052,157.001358 477.032684,152.837982 470.511353,149.051712   C445.488220,134.523315 420.382172,120.137833 395.331360,105.656982   C371.430969,91.841141 347.577515,77.944115 323.672699,64.135979   C300.344421,50.660877 276.974762,37.257561 253.629791,23.811335   C249.739487,21.570593 245.711624,19.507851 242.092468,16.886383   C240.594620,15.801455 240.005280,13.462287 238.998962,11.303389   C248.015091,10.891986 257.035034,10.870716 266.521729,10.878954   C268.258057,13.011251 269.016815,15.964281 270.877960,17.082642   C286.112091,26.236732 301.535492,35.076977 316.932648,43.958370   C340.095215,57.319038 363.296204,70.613060 386.456604,83.977516   C410.915833,98.091438 435.412872,112.141914 459.757629,126.451080   C469.708954,132.300186 479.303802,138.755737 489.392334,144.954681   C489.769775,150.004562 489.815765,155.035126 489.799866,160.528625  z"
   id="path14" />
<path
   fill="#28944E"
   opacity="1.000000"
   stroke="none"
   d=" M489.882935,435.008209   C489.897491,446.029327 489.912048,457.050415 489.532227,468.518921   C479.130707,463.791229 468.932220,458.951599 459.154114,453.374908   C434.902405,439.543671 410.820251,425.414093 386.727264,411.306549   C382.545502,408.857910 378.643982,405.930542 374.793457,402.968689   C381.712463,396.491425 388.451080,390.269745 395.493164,384.208740   C398.374420,385.506226 401.083527,386.415466 403.509552,387.815338   C425.763580,400.656952 447.846985,413.800934 470.266907,426.344208   C476.447235,429.801910 481.759705,435.768158 489.882935,435.008209  z"
   id="path15" />
<path
   fill="#329954"
   opacity="1.000000"
   stroke="none"
   d=" M489.914124,434.539490   C481.759705,435.768158 476.447235,429.801910 470.266907,426.344208   C447.846985,413.800934 425.763580,400.656952 403.509552,387.815338   C401.083527,386.415466 398.374420,385.506226 395.614990,383.903931   C401.856873,375.253632 408.280396,367.068787 414.992493,359.091827   C416.333832,360.103241 417.313202,361.033569 418.450165,361.691681   C439.899261,374.106232 461.344116,386.528687 482.867432,398.813629   C484.946533,400.000336 487.536163,400.292511 489.888824,400.999908   C489.907684,412.023529 489.926514,423.047180 489.914124,434.539490  z"
   id="path16" />
<path
   fill="#94C784"
   opacity="1.000000"
   stroke="none"
   d=" M489.767090,90.519257   C482.080719,86.402794 474.520874,81.715652 466.825562,77.262688   C443.358185,63.683071 419.834534,50.200603 396.341003,36.666103   C385.385651,30.354799 374.370422,24.139671 363.584015,17.550804   C361.845276,16.488682 361.163818,13.695672 359.991028,11.298170   C373.011261,10.861442 386.034058,10.829316 399.525269,11.253208   C399.285370,16.535292 403.127472,17.813631 406.224609,19.596153   C428.240082,32.266956 450.257202,44.935055 472.312042,57.537102   C478.037476,60.808571 483.898499,63.842709 489.697205,66.985863   C489.742065,74.675797 489.786896,82.365723 489.767090,90.519257  z"
   id="path17" />
<path
   fill="#28944E"
   opacity="1.000000"
   stroke="none"
   d=" M10.980359,199.992767   C10.975244,187.973175 10.970130,175.953583 11.342161,163.481201   C12.208024,163.114822 12.772096,163.071823 13.174639,163.306229   C32.637100,174.639099 52.096615,185.977173 71.521210,197.374725   C73.845688,198.738602 75.971786,200.440567 78.289635,202.446442   C78.304489,215.261887 78.219543,227.616760 77.849701,239.977570   C77.374901,239.988403 77.184990,239.993286 76.669785,239.915268   C74.348526,238.117264 72.555588,236.058411 70.324829,234.740875   C50.587471,223.083450 30.772442,211.557526 10.980359,199.992767  z"
   id="path18" />
<path
   fill="#329954"
   opacity="1.000000"
   stroke="none"
   d=" M78.189827,201.985840   C75.971786,200.440567 73.845688,198.738602 71.521210,197.374725   C52.096615,185.977173 32.637100,174.639099 13.174639,163.306229   C12.772096,163.071823 12.208024,163.114822 11.351051,163.012360   C10.978004,150.976044 10.973210,138.955750 11.334689,126.525887   C23.602713,132.649185 35.688362,138.872940 47.349388,145.810425   C57.087074,151.603668 66.317909,158.247391 75.809616,164.458847   C76.445671,164.875107 77.389442,164.821167 78.288193,165.446869   C78.320801,177.933823 78.255310,189.959824 78.189827,201.985840  z"
   id="path19" />
<path
   fill="#3D9E59"
   opacity="1.000000"
   stroke="none"
   d=" M78.190094,164.985916   C77.389442,164.821167 76.445671,164.875107 75.809616,164.458847   C66.317909,158.247391 57.087074,151.603668 47.349388,145.810425   C35.688362,138.872940 23.602713,132.649185 11.343781,126.057175   C10.979857,114.644287 10.973115,103.290550 11.368113,91.471558   C13.650377,91.577065 15.720982,91.816666 17.381908,92.770012   C33.344509,101.932274 49.267735,111.164391 65.132339,120.495331   C69.602829,123.124695 73.843536,126.144753 78.285538,129.447021   C78.317650,141.600937 78.253868,153.293427 78.190094,164.985916  z"
   id="path20" />
<path
   fill="#20914B"
   opacity="1.000000"
   stroke="none"
   d=" M374.613037,403.224274   C378.643982,405.930542 382.545502,408.857910 386.727264,411.306549   C410.820251,425.414093 434.902405,439.543671 459.154114,453.374908   C468.932220,458.951599 479.130707,463.791229 489.504578,468.987305   C489.886658,475.028687 489.902069,481.049042 489.512451,487.532043   C486.662506,487.061249 484.044800,486.429993 481.800415,485.146118   C465.816010,476.002472 449.959290,466.635468 433.963684,457.511719   C408.898010,443.214447 383.754913,429.052795 358.866089,414.547821   C364.262756,410.582703 369.437897,406.903503 374.613037,403.224274  z"
   id="path21" />
<path
   fill="#47A35E"
   opacity="1.000000"
   stroke="none"
   d=" M78.189636,128.985611   C73.843536,126.144753 69.602829,123.124695 65.132339,120.495331   C49.267735,111.164391 33.344509,101.932274 17.381908,92.770012   C15.720982,91.816666 13.650377,91.577065 11.378256,91.002960   C10.978238,79.645737 10.969818,68.291862 11.374578,56.469688   C13.508511,56.447067 15.426391,56.545910 16.918467,57.393944   C27.717470,63.531635 38.618454,69.522972 49.114231,76.151176   C58.364265,81.992676 69.457787,85.208939 76.283760,94.652992   C76.554581,95.027687 77.539352,94.886360 78.284851,95.447380   C78.315361,106.934738 78.252495,117.960175 78.189636,128.985611  z"
   id="path22" />
<path
   fill="#1D8F49"
   opacity="1.000000"
   stroke="none"
   d=" M10.971161,200.462128   C30.772442,211.557526 50.587471,223.083450 70.324829,234.740875   C72.555588,236.058411 74.348526,238.117264 76.679466,240.303131   C77.381958,242.194016 77.749474,243.614151 78.249847,245.413910   C78.296097,246.850479 78.209473,247.907394 77.900818,249.177246   C77.827919,250.272156 77.977066,251.154129 78.258438,252.454956   C78.304802,254.910080 78.218941,256.946350 78.133072,258.982605   C77.751518,263.674957 77.369980,268.367340 76.644440,273.466614   C66.824799,268.099823 57.453400,262.145599 47.847290,256.597778   C35.655312,249.556580 23.272852,242.845184 10.972517,235.991592   C10.968998,224.304901 10.965480,212.618195 10.971161,200.462128  z"
   id="path23" />
<path
   fill="#098640"
   opacity="1.000000"
   stroke="none"
   d=" M349.458862,498.987305   C345.512573,496.901215 342.052155,494.817963 338.555084,492.798157   C314.665924,479.000458 290.790894,465.177856 266.843719,451.481537   C264.204590,449.972107 263.804626,448.268372 265.361145,445.289093   C275.905670,443.340576 285.965393,441.871368 296.020599,440.822083   C297.132507,443.054535 297.809052,445.621918 299.430939,446.566986   C326.227509,462.181458 353.145721,477.587128 380.028137,493.054474   C383.374969,494.980164 386.673035,496.990631 389.993683,498.961792   C376.638367,498.981049 363.283051,499.000305 349.458862,498.987305  z"
   id="path24" />
<path
   fill="#138B45"
   opacity="1.000000"
   stroke="none"
   d=" M10.960957,236.461044   C23.272852,242.845184 35.655312,249.556580 47.847290,256.597778   C57.453400,262.145599 66.824799,268.099823 76.640877,273.931458   C76.983559,285.010132 76.985794,296.030884 76.646072,307.462952   C74.131500,306.380859 72.038177,304.753082 69.772850,303.416870   C58.611202,296.833221 47.505085,290.144806 36.179054,283.853973   C27.932997,279.273834 19.375374,275.254669 10.956662,270.985382   C10.954239,259.633759 10.951818,248.282120 10.960957,236.461044  z"
   id="path25" />
<path
   fill="#138B45"
   opacity="1.000000"
   stroke="none"
   d=" M454.994232,498.964600   C444.639709,498.980347 434.285217,498.996063 423.370667,498.658386   C421.167480,497.282623 419.553986,496.208527 417.876740,495.245544   C386.653168,477.317932 355.425568,459.397339 324.187347,441.495270   C320.819458,439.565186 317.380676,437.758698 314.202454,435.616241   C321.261292,432.807983 328.092407,430.278412 335.071655,428.078796   C336.289948,429.371124 337.226990,430.571381 338.452026,431.256836   C345.850067,435.396332 353.386749,439.290955 360.742767,443.502045   C386.850189,458.447601 412.934296,473.434570 438.952454,488.534668   C444.461761,491.732086 449.655243,495.473724 454.994232,498.964600  z"
   id="path26" />
<path
   fill="#098640"
   opacity="1.000000"
   stroke="none"
   d=" M10.943615,271.455444   C19.375374,275.254669 27.932997,279.273834 36.179054,283.853973   C47.505085,290.144806 58.611202,296.833221 69.772850,303.416870   C72.038177,304.753082 74.131500,306.380859 76.644806,307.930786   C76.985504,318.056976 76.985504,328.126648 76.985504,338.891998   C54.617214,325.956757 33.140026,313.536804 11.315573,301.054443   C10.955731,291.303162 10.943150,281.614319 10.943615,271.455444  z"
   id="path27" />
<path
   fill="#0E8842"
   opacity="1.000000"
   stroke="none"
   d=" M313.974762,435.894897   C317.380676,437.758698 320.819458,439.565186 324.187347,441.495270   C355.425568,459.397339 386.653168,477.317932 417.876740,495.245544   C419.553986,496.208527 421.167480,497.282623 422.902069,498.635498   C412.306122,498.982941 401.618744,498.999908 390.462524,498.989349   C386.673035,496.990631 383.374969,494.980164 380.028137,493.054474   C353.145721,477.587128 326.227509,462.181458 299.430939,446.566986   C297.809052,445.621918 297.132507,443.054535 296.350281,440.671692   C302.447876,438.699219 308.211304,437.297058 313.974762,435.894897  z"
   id="path28" />
<path
   fill="#3D9E59"
   opacity="1.000000"
   stroke="none"
   d=" M489.917236,400.531860   C487.536163,400.292511 484.946533,400.000336 482.867432,398.813629   C461.344116,386.528687 439.899261,374.106232 418.450165,361.691681   C417.313202,361.033569 416.333832,360.103241 415.085938,358.745056   C418.598663,351.620148 422.306488,345.049896 426.392365,338.657227   C442.011078,347.554657 457.180450,356.402863 472.530151,364.926392   C478.094513,368.016205 484.090027,370.329712 489.888824,372.997437   C489.907776,382.019562 489.926697,391.041687 489.917236,400.531860  z"
   id="path29" />
<path
   fill="#6EB571"
   opacity="1.000000"
   stroke="none"
   d=" M133.990204,10.941608   C147.011429,10.921406 160.032639,10.901204 173.526703,11.295351   C175.151169,13.543707 175.863617,16.126486 177.520844,17.098440   C199.384232,29.921371 221.432983,42.428814 243.262146,55.308708   C245.425705,56.585274 246.451721,59.789761 247.552628,62.160717   C244.061218,62.039742 241.022858,61.857491 237.947723,61.503006   C237.612595,61.435734 237.314270,61.540688 236.618103,61.736229   C235.139908,61.766289 234.059555,61.705772 232.800964,61.314545   C231.059708,60.655994 229.500397,60.067112 227.933060,60.044895   C220.625290,59.941315 213.315308,59.994301 206.001556,59.609390   C204.972977,57.483547 204.359039,55.134354 202.847397,54.110153   C198.467224,51.142426 193.718994,48.719810 189.128510,46.060284   C172.346375,36.337399 155.521713,26.685781 138.852402,16.773022   C136.801147,15.553194 135.590424,12.919896 133.990204,10.941608  z"
   id="path30" />
<path
   fill="#9ACA87"
   opacity="1.000000"
   stroke="none"
   d=" M489.762909,66.522141   C483.898499,63.842709 478.037476,60.808571 472.312042,57.537102   C450.257202,44.935055 428.240082,32.266956 406.224609,19.596153   C403.127472,17.813631 399.285370,16.535292 399.991486,11.299918   C414.344788,10.854887 428.700287,10.819164 443.508362,11.220675   C442.713928,14.985136 443.669464,16.853476 447.010742,18.656641   C456.939972,24.015112 466.568542,29.928793 476.347626,35.568230   C480.754395,38.109516 485.239410,40.515011 489.688934,42.982117   C489.735474,50.674221 489.782013,58.366322 489.762909,66.522141  z"
   id="path31" />
<path
   fill="#188D47"
   opacity="1.000000"
   stroke="none"
   d=" M455.463135,498.987152   C449.655243,495.473724 444.461761,491.732086 438.952454,488.534668   C412.934296,473.434570 386.850189,458.447601 360.742767,443.502045   C353.386749,439.290955 345.850067,435.396332 338.452026,431.256836   C337.226990,430.571381 336.289948,429.371124 335.303345,427.829285   C340.168182,424.895874 344.949524,422.541962 349.814789,420.585693   C351.199829,422.357513 352.270905,424.123169 353.838257,425.044281   C367.002594,432.780457 380.252563,440.371063 393.487030,447.987671   C416.791565,461.399811 440.122070,474.766998 463.399170,488.226532   C469.346344,491.665405 475.134003,495.380157 480.994965,498.968140   C472.640656,498.981995 464.286346,498.995850 455.463135,498.987152  z"
   id="path32" />
<path
   fill="#50A863"
   opacity="1.000000"
   stroke="none"
   d=" M78.191467,94.985458   C77.539352,94.886360 76.554581,95.027687 76.283760,94.652992   C69.457787,85.208939 58.364265,81.992676 49.114231,76.151176   C38.618454,69.522972 27.717470,63.531635 16.918467,57.393944   C15.426391,56.545910 13.508511,56.447067 11.387043,56.001221   C10.973996,47.314163 10.961664,38.627274 11.305624,29.420025   C13.339162,29.200842 15.244619,29.088974 16.657091,29.869377   C26.800365,35.473606 37.164227,40.771179 46.828426,47.123932   C56.529346,53.500820 68.496269,56.540874 75.851166,66.460831   C76.221458,66.960266 77.391357,66.866875 78.282707,67.507179   C78.314804,76.971718 78.253136,85.978592 78.191467,94.985458  z"
   id="path33" />
<path
   fill="#1D8F49"
   opacity="1.000000"
   stroke="none"
   d=" M481.447784,498.988434   C475.134003,495.380157 469.346344,491.665405 463.399170,488.226532   C440.122070,474.766998 416.791565,461.399811 393.487030,447.987671   C380.252563,440.371063 367.002594,432.780457 353.838257,425.044281   C352.270905,424.123169 351.199829,422.357513 350.036957,420.365417   C352.998352,418.109589 355.821503,416.471649 358.644623,414.833740   C383.754913,429.052795 408.898010,443.214447 433.963684,457.511719   C449.959290,466.635468 465.816010,476.002472 481.800415,485.146118   C484.044800,486.429993 486.662506,487.061249 489.482483,487.999634   C489.895355,489.001160 489.957214,489.997406 489.967133,490.994202   C490.047546,499.058105 490.044586,499.058136 481.447784,498.988434  z"
   id="path34" />
<path
   fill="#75B975"
   opacity="1.000000"
   stroke="none"
   d=" M248.005707,62.099434   C246.451721,59.789761 245.425705,56.585274 243.262146,55.308708   C221.432983,42.428814 199.384232,29.921371 177.520844,17.098440   C175.863617,16.126486 175.151169,13.543707 173.994186,11.320154   C184.011368,10.912574 194.033920,10.894541 204.523575,10.901563   C206.552170,13.090553 207.650620,16.017046 209.751480,17.292730   C221.954712,24.702784 234.380096,31.748169 246.756836,38.870895   C258.703125,45.745899 270.765289,52.425629 282.578888,59.520267   C285.111694,61.041351 286.795563,63.976116 288.514404,66.647011   C280.440948,65.982849 272.723572,64.931335 264.915192,63.590790   C263.870758,63.237358 262.917297,63.172947 261.510559,63.145042   C256.706787,62.820843 252.356247,62.460136 248.005707,62.099434  z"
   id="path35" />
<path
   fill="#75B975"
   opacity="1.000000"
   stroke="none"
   d=" M404.887939,131.287170   C407.318665,131.388840 410.193542,130.678940 412.106873,131.726028   C423.162354,137.776169 433.982635,144.255219 444.898254,150.561874   C457.532166,157.861252 470.201843,165.099045 482.807007,172.447556   C485.017273,173.736084 486.986389,175.438141 489.409760,176.963470   C489.787964,184.000504 489.823334,191.023270 489.471802,198.499084   C485.774200,196.828125 482.531616,194.587860 479.140594,192.600983   C466.832031,185.389236 454.476929,178.256790 442.132751,171.105957   C436.294403,167.723892 430.441010,164.367874 424.377747,160.763702   C417.736664,150.780624 411.312317,141.033890 404.887939,131.287170  z"
   id="path36" />
<path
   fill="#65B16D"
   opacity="1.000000"
   stroke="none"
   d=" M489.175354,226.051071   C489.435638,233.588730 489.739471,241.125244 489.936737,248.664551   C490.027130,252.120117 489.908051,255.581146 489.504761,259.495636   C479.823547,254.567078 470.577789,249.081955 461.198303,243.835907   C455.588165,240.698059 449.768677,237.934448 443.921082,234.596130   C442.192413,222.792892 440.586029,211.396118 439.398163,199.998627   C445.383636,202.336166 451.195557,204.225983 456.466644,207.105820   C467.520294,213.144958 478.289429,219.704941 489.175354,226.051071  z"
   id="path37" />
<path
   fill="#50A863"
   opacity="1.000000"
   stroke="none"
   d=" M489.849548,291.980072   C489.873779,303.004150 489.897980,314.028229 489.547729,325.507080   C488.538757,325.793762 487.823425,325.761078 487.281708,325.437622   C474.518738,317.817413 461.860168,310.016205 448.960388,302.636292   C446.108917,301.005005 442.416077,300.844421 439.087280,299.605957   C440.634705,289.112488 442.205444,279.019653 444.039490,269.109131   C447.668243,270.260590 451.268311,270.760193 454.349030,272.299255   C460.271484,275.258026 465.867706,278.863129 471.658936,282.093140   C477.685760,285.454620 483.783051,288.689728 489.849548,291.980072  z"
   id="path38" />
<path
   fill="#6EB571"
   opacity="1.000000"
   stroke="none"
   d=" M489.248718,225.638596   C478.289429,219.704941 467.520294,213.144958 456.466644,207.105820   C451.195557,204.225983 445.383636,202.336166 439.216431,199.665817   C433.942291,186.555832 429.268341,173.777954 424.594421,161.000061   C430.441010,164.367874 436.294403,167.723892 442.132751,171.105957   C454.476929,178.256790 466.832031,185.389236 479.140594,192.600983   C482.531616,194.587860 485.774200,196.828125 489.425720,198.963806   C489.618378,207.725708 489.470215,216.475906 489.248718,225.638596  z"
   id="path39" />
<path
   fill="#57AB65"
   opacity="1.000000"
   stroke="none"
   d=" M78.188942,67.049515   C77.391357,66.866875 76.221458,66.960266 75.851166,66.460831   C68.496269,56.540874 56.529346,53.500820 46.828426,47.123932   C37.164227,40.771179 26.800365,35.473606 16.657091,29.869377   C15.244619,29.088974 13.339162,29.200842 11.319079,28.951752   C10.964696,23.652727 10.953149,18.301613 11.162178,12.342712   C11.641219,11.519275 11.852797,11.264663 12.017486,10.971088   C14.052461,10.959731 16.087437,10.948374 18.622002,11.295335   C20.686407,13.066367 22.063681,14.799311 23.844913,15.842489   C42.629295,26.843567 61.477013,37.736515 80.309990,48.654575   C84.612648,51.148949 90.171738,52.707134 92.874352,56.374905   C95.440231,59.857124 97.789574,59.994579 101.029648,59.995861   C107.355232,59.998371 113.680824,59.992695 120.474663,59.991455   C130.297043,59.992115 139.651154,59.991730 149.473602,59.992477   C159.961487,59.994850 169.981049,59.996098 180.417053,59.999207   C182.221725,60.001167 183.609940,60.001270 184.991318,60.262299   C184.976547,60.871101 184.968628,61.218979 184.501526,61.648411   C164.096207,61.758476 144.149994,61.761673 124.203949,61.823715   C108.916603,61.871265 93.629478,61.993099 78.206688,62.159615   C77.809753,62.470516 77.830978,62.713943 78.264557,63.237259   C78.325867,64.687767 78.257401,65.868637 78.188942,67.049515  z"
   id="path40" />
<path
   fill="#5BAC68"
   opacity="1.000000"
   stroke="none"
   d=" M489.885437,291.514343   C483.783051,288.689728 477.685760,285.454620 471.658936,282.093140   C465.867706,278.863129 460.271484,275.258026 454.349030,272.299255   C451.268311,270.760193 447.668243,270.260590 443.963501,268.649536   C443.763885,257.005951 443.903595,246.004288 444.043304,235.002625   C449.768677,237.934448 455.588165,240.698059 461.198303,243.835907   C470.577789,249.081955 479.823547,254.567078 489.470825,259.961182   C489.851166,270.330078 489.886261,280.689331 489.885437,291.514343  z"
   id="path41" />
<path
   fill="#65B16D"
   opacity="1.000000"
   stroke="none"
   d=" M180.000610,59.997345   C169.981049,59.996098 159.961487,59.994850 149.468826,59.610798   C147.969193,57.482529 147.375778,54.995571 145.850189,54.104412   C127.214554,43.218517 108.380005,32.673145 89.743477,21.788746   C84.256180,18.583967 79.228966,14.591410 73.990898,10.959885   C84.680107,10.943209 95.369316,10.926532 106.542786,11.298654   C108.490219,13.338074 109.653419,15.499969 111.462349,16.561314   C132.764572,29.059883 154.139664,41.435173 175.567719,53.717049   C178.183426,55.216282 180.526703,56.478046 180.000610,59.997345  z"
   id="path42" />
<path
   fill="#5FAF6A"
   opacity="1.000000"
   stroke="none"
   d=" M73.523483,10.943268   C79.228966,14.591410 84.256180,18.583967 89.743477,21.788746   C108.380005,32.673145 127.214554,43.218517 145.850189,54.104412   C147.375778,54.995571 147.969193,57.482529 149.000504,59.609665   C139.651154,59.991730 130.297043,59.992115 120.457558,59.627052   C118.612015,57.499241 117.617500,55.108837 115.835350,54.071224   C97.044792,43.130848 78.067131,32.511623 59.286060,21.555288   C53.946209,18.440176 49.077587,14.517300 43.992863,10.964853   C53.680599,10.952121 63.368332,10.939387 73.523483,10.943268  z"
   id="path43" />
<path
   fill="#47A35E"
   opacity="1.000000"
   stroke="none"
   d=" M439.110657,300.006592   C442.416077,300.844421 446.108917,301.005005 448.960388,302.636292   C461.860168,310.016205 474.518738,317.817413 487.281708,325.437622   C487.823425,325.761078 488.538757,325.793762 489.523926,325.974304   C489.621979,334.363647 489.369354,342.740540 488.732788,351.545654   C476.370972,345.295776 464.519531,338.375031 452.364014,332.037537   C445.873718,328.653687 440.487457,322.715790 432.448486,322.387054   C434.710938,314.666870 436.910797,307.336731 439.110657,300.006592  z"
   id="path44" />
<path
   fill="#69B36F"
   opacity="1.000000"
   stroke="none"
   d=" M180.417053,59.999207   C180.526703,56.478046 178.183426,55.216282 175.567719,53.717049   C154.139664,41.435173 132.764572,29.059883 111.462349,16.561314   C109.653419,15.499969 108.490219,13.338074 107.010841,11.317398   C115.681709,10.933074 124.368782,10.918806 133.523026,10.923073   C135.590424,12.919896 136.801147,15.553194 138.852402,16.773022   C155.521713,26.685781 172.346375,36.337399 189.128510,46.060284   C193.718994,48.719810 198.467224,51.142426 202.847397,54.110153   C204.359039,55.134354 204.972977,57.483547 205.532318,59.611942   C198.377823,59.998058 191.688004,59.999718 184.998169,60.001373   C183.609940,60.001270 182.221725,60.001167 180.417053,59.999207  z"
   id="path45" />
<path
   fill="#42A15B"
   opacity="1.000000"
   stroke="none"
   d=" M432.385864,322.777100   C440.487457,322.715790 445.873718,328.653687 452.364014,332.037537   C464.519531,338.375031 476.370972,345.295776 488.729431,351.989258   C489.389160,358.690552 489.668365,365.376495 489.918213,372.529938   C484.090027,370.329712 478.094513,368.016205 472.530151,364.926392   C457.180450,356.402863 442.011078,347.554657 426.438965,338.304260   C426.750336,336.515259 427.393158,335.256805 428.297943,333.941650   C428.680542,333.246674 428.801208,332.608398 428.947540,331.604187   C430.110779,328.417877 431.248352,325.597504 432.385864,322.777100  z"
   id="path46" />
<path
   fill="#5BAC68"
   opacity="1.000000"
   stroke="none"
   d=" M43.525208,10.950016   C49.077587,14.517300 53.946209,18.440176 59.286060,21.555288   C78.067131,32.511623 97.044792,43.130848 115.835350,54.071224   C117.617500,55.108837 118.612015,57.499241 119.989304,59.625999   C113.680824,59.992695 107.355232,59.998371 101.029648,59.995861   C97.789574,59.994579 95.440231,59.857124 92.874352,56.374905   C90.171738,52.707134 84.612648,51.148949 80.309990,48.654575   C61.477013,37.736515 42.629295,26.843567 23.844913,15.842489   C22.063681,14.799311 20.686407,13.066367 19.057938,11.310330   C27.015371,10.956399 35.036461,10.945788 43.525208,10.950016  z"
   id="path47" />
<path
   fill="#A2CE8B"
   opacity="1.000000"
   stroke="none"
   d=" M489.753418,42.518562   C485.239410,40.515011 480.754395,38.109516 476.347626,35.568230   C466.568542,29.928793 456.939972,24.015112 447.010742,18.656641   C443.669464,16.853476 442.713928,14.985136 443.974060,11.272005   C457.770966,10.834669 471.555878,10.865253 485.337708,10.673222   C488.716248,10.626147 490.068420,11.574119 489.975128,15.152082   C489.741486,24.115000 489.847870,33.086781 489.753418,42.518562  z"
   id="path48" />
<path
   fill="#5BAC68"
   opacity="1.000000"
   stroke="none"
   d=" M11.792446,11.089502   C11.852797,11.264663 11.641219,11.519275 11.177017,11.876395   C11.169989,11.747883 11.368697,11.477900 11.792446,11.089502  z"
   id="path49" />
<path
   fill="#598938"
   opacity="1.000000"
   stroke="none"
   d=" M4.491134,4.484680   C4.515675,4.474335 4.466593,4.495026 4.491134,4.484680  z"
   id="path50" />

<path
   fill="#75B975"
   opacity="1.000000"
   stroke="none"
   d=" M297.908691,68.513763   C295.793610,68.522438 293.593903,68.177261 291.105072,67.596222   C293.400909,65.444878 295.813721,65.038383 297.908691,68.513763  z"
   id="path52" />
<path
   fill="#01823B"
   opacity="1.000000"
   stroke="none"
   d=" M77.849701,239.977570   C78.194672,241.383286 78.254761,242.794937 78.215912,244.620438   C77.749474,243.614151 77.381958,242.194016 77.004761,240.386047   C77.184990,239.993286 77.374901,239.988403 77.849701,239.977570  z"
   id="path53" />
<path
   fill="#01823B"
   opacity="1.000000"
   stroke="none"
   d=" M77.900818,249.177246   C78.189255,249.736313 78.255653,250.508331 78.224129,251.658218   C77.977066,251.154129 77.827919,250.272156 77.900818,249.177246  z"
   id="path54" />
<path
   fill="#65B16D"
   opacity="1.000000"
   stroke="none"
   d=" M232.800964,61.314545   C217.281006,61.685177 201.582825,61.725098 185.422668,61.665939   C184.968628,61.218979 184.976547,60.871101 184.991318,60.262299   C191.688004,59.999718 198.377823,59.998058 205.536896,59.993851   C213.315308,59.994301 220.625290,59.941315 227.933060,60.044895   C229.500397,60.067112 231.059708,60.655994 232.800964,61.314545  z"
   id="path55" />
<path
   fill="#65B16D"
   opacity="1.000000"
   stroke="none"
   d=" M237.947723,61.503006   C237.984512,61.675240 237.497025,61.764774 237.256485,61.705208   C237.314270,61.540688 237.612595,61.435734 237.947723,61.503006  z"
   id="path56" />
<path
   fill="#7BBC7F"
   opacity="1.000000"
   stroke="none"
   d=" M264.915192,63.590790   C264.176575,63.740822 263.346985,63.601826 262.240601,63.285683   C262.917297,63.172947 263.870758,63.237358 264.915192,63.590790  z"
   id="path57" />
<path
   fill="#3D9E59"
   opacity="1.000000"
   stroke="none"
   d=" M78.206688,62.159615   C78.342255,62.081898 78.306961,62.540817 78.220879,62.754219   C77.830978,62.713943 77.809753,62.470516 78.206688,62.159615  z"
   id="path58" />
<path
   fill="#3D9E59"
   opacity="1.000000"
   stroke="none"
   d=" M428.297913,333.941650   C428.182251,333.446289 428.328552,332.894226 428.698364,332.156128   C428.801208,332.608398 428.680542,333.246674 428.297913,333.941650  z"
   id="path59" />
<path
   fill="#30C757"
   opacity="1.000000"
   stroke="none"
   d=" M229.006653,115.983337   C229.394058,115.806664 229.781479,115.629997 230.651031,115.806122   C232.671448,117.358543 234.048782,118.905266 235.772675,119.704590   C254.764526,128.510620 273.781525,137.263977 292.857391,145.886337   C299.312012,148.803864 305.952484,151.310272 312.508026,154.004562   C312.534668,158.953506 312.561279,163.902451 312.006195,169.298798   C292.666809,167.776733 273.881134,166.817078 254.973099,167.818756   C253.590607,162.136459 248.418030,162.183411 244.719849,160.458099   C226.192963,151.814636 207.538864,143.443848 188.929474,134.977234   C200.442810,126.125732 213.512939,120.449234 227.769226,116.271721   C228.605118,116.441521 228.851746,116.313850 229.006653,115.983337  z"
   id="path60" />
<path
   fill="#10A14B"
   opacity="1.000000"
   stroke="none"
   d=" M196.857330,302.459442   C198.047195,303.221802 199.237045,303.984131 200.809219,305.195831   C202.123978,306.273804 202.991882,307.040894 203.998611,307.510193   C218.009857,314.041412 232.083725,320.441101 246.016998,327.133759   C248.024170,328.097870 249.377029,330.424194 250.791061,332.361145   C239.059402,338.805969 227.569382,345.009735 216.058182,350.818390   C215.259735,349.098022 214.802979,347.088654 213.656525,346.551575   C199.422638,339.883911 185.088425,333.430420 170.740997,326.601196   C169.653183,325.260803 168.639618,324.201569 167.549744,323.227722   C161.510712,317.831757 155.115692,312.784973 149.481949,306.996338   C141.288422,298.577484 135.505798,288.603546 133.302719,276.996399   C136.122070,277.483765 138.710846,277.540649 140.877899,278.525513   C155.471344,285.157806 169.923447,292.102325 184.543060,298.674988   C188.429428,300.422211 192.740997,301.223724 196.857330,302.459442  z"
   id="path61" />
<path
   fill="#29C056"
   opacity="1.000000"
   stroke="none"
   d=" M188.604980,135.071594   C207.538864,143.443848 226.192963,151.814636 244.719849,160.458099   C248.418030,162.183411 253.590607,162.136459 254.637344,168.010651   C236.843781,170.716003 220.416367,176.105881 204.881790,184.910263   C203.245773,183.766663 202.035019,182.545792 200.574066,181.851059   C190.303833,176.967209 180.029419,172.085922 169.649612,167.442337   C166.274887,165.932602 162.581726,165.134674 159.034210,164.011185   C166.929062,152.516418 177.103882,143.333344 188.604980,135.071594  z"
   id="path62" />
<path
   fill="#1BAD50"
   opacity="1.000000"
   stroke="none"
   d=" M129.955338,253.989777   C129.547195,234.049561 133.086273,214.820084 140.845032,196.268845   C153.595398,201.856323 165.850754,207.436264 178.019089,213.363647   C177.550430,214.439255 177.146637,215.156754 176.790527,215.897186   C171.918167,226.027786 168.619537,236.542023 169.004715,247.950256   C169.570007,254.281494 170.135284,260.612732 170.304749,267.409302   C168.949356,267.667816 167.905350,267.638000 167.043182,267.226868   C157.914490,262.873901 148.780930,258.528229 139.724640,254.027756   C136.378937,252.365112 133.221359,251.960663 129.955338,253.989777  z"
   id="path63" />
<path
   fill="#36CE59"
   opacity="1.000000"
   stroke="none"
   d=" M312.615417,153.547577   C305.952484,151.310272 299.312012,148.803864 292.857391,145.886337   C273.781525,137.263977 254.764526,128.510620 235.772675,119.704590   C234.048782,118.905266 232.671448,117.358543 230.972992,115.811584   C245.218109,110.821625 260.139740,109.498459 275.118042,109.180939   C285.916168,108.952034 296.735016,109.897835 307.543640,109.873947   C311.907471,109.864304 313.156250,111.557106 312.513214,115.899551   C312.405731,116.350876 312.392303,116.622192 312.392303,116.622192   C312.392303,116.622192 312.619415,116.740532 312.619415,116.740532   C312.653870,128.857224 312.688354,140.973923 312.615417,153.547577  z"
   id="path64" />
<path
   fill="#1BAD50"
   opacity="1.000000"
   stroke="none"
   d=" M235.879059,286.699463   C246.938690,280.655212 257.998291,274.610962 269.578735,268.829071   C271.162262,270.096832 272.056793,271.462555 273.314697,272.049805   C282.124451,276.162354 291.099792,279.927948 299.841278,284.176666   C306.751953,287.535553 313.404846,291.424866 319.932129,295.307739   C319.088867,295.795197 318.485748,296.053589 317.704712,296.334961   C317.307556,296.490723 317.176453,296.683533 316.878479,297.174011   C306.082581,302.945190 295.541718,308.478790 284.854095,313.702026   C283.142426,311.764923 281.869415,309.534698 279.963562,308.612823   C270.141388,303.861816 260.086700,299.592010 250.258591,294.852783   C245.306412,292.464752 240.662415,289.437622 235.879059,286.699463  z"
   id="path65" />
<path
   fill="#15A64D"
   opacity="1.000000"
   stroke="none"
   d=" M235.525345,286.774170   C240.662415,289.437622 245.306412,292.464752 250.258591,294.852783   C260.086700,299.592010 270.141388,303.861816 279.963562,308.612823   C281.869415,309.534698 283.142426,311.764923 284.615784,313.944519   C273.360382,320.371643 262.196564,326.245880 251.032700,332.120117   C249.377029,330.424194 248.024170,328.097870 246.016998,327.133759   C232.083725,320.441101 218.009857,314.041412 203.998611,307.510193   C202.991882,307.040894 202.123978,306.273804 201.095688,305.312866   C212.390442,298.936676 223.781036,292.892792 235.525345,286.774170  z"
   id="path66" />
<path
   fill="#068C42"
   opacity="1.000000"
   stroke="none"
   d=" M116.121033,413.531708   C119.914070,402.494110 123.321411,391.302032 127.656494,380.481598   C129.959778,374.732483 133.871292,369.627686 137.720901,364.121887   C148.422287,368.340851 158.395050,372.830292 168.531570,376.913177   C172.139221,378.366241 174.914948,380.150787 175.858047,384.301117   C171.517319,390.346985 166.862076,395.822266 163.292526,401.931885   C160.966095,405.913788 158.056641,407.407898 153.896072,407.989716   C141.292511,409.752136 128.711075,411.672729 116.121033,413.531708  z"
   id="path67" />
<path
   fill="#22B753"
   opacity="1.000000"
   stroke="none"
   d=" M178.106110,213.016190   C165.850754,207.436264 153.595398,201.856323 141.097092,196.005402   C144.806458,184.200989 151.037857,173.945663 158.743286,164.182495   C162.581726,165.134674 166.274887,165.932602 169.649612,167.442337   C180.029419,172.085922 190.303833,176.967209 200.574066,181.851059   C202.035019,182.545792 203.245773,183.766663 204.643478,185.155151   C194.039780,192.966232 184.937057,201.890137 178.106110,213.016190  z"
   id="path68" />
<path
   fill="#1FB452"
   opacity="1.000000"
   stroke="none"
   d=" M320.172211,295.078644   C313.404846,291.424866 306.751953,287.535553 299.841278,284.176666   C291.099792,279.927948 282.124451,276.162354 273.314697,272.049805   C272.056793,271.462555 271.162262,270.096832 269.938904,268.739929   C278.591370,263.558441 287.404480,258.728424 296.648987,254.205994   C298.454193,255.553238 299.696564,256.873596 301.222534,257.588440   C314.387695,263.755737 327.655670,269.706635 340.753082,276.012604   C342.880402,277.036804 344.319641,279.490021 345.831421,281.505493   C339.011230,285.448151 332.436493,289.168030 325.526215,292.960388   C323.517822,293.714783 321.845032,294.396698 320.172211,295.078644  z"
   id="path69" />
<path
   fill="#22B753"
   opacity="1.000000"
   stroke="none"
   d=" M346.076935,281.282745   C344.319641,279.490021 342.880402,277.036804 340.753082,276.012604   C327.655670,269.706635 314.387695,263.755737 301.222534,257.588440   C299.696564,256.873596 298.454193,255.553238 297.007660,254.150391   C307.713470,247.874146 318.492004,241.961105 329.809113,236.301071   C337.702271,240.003799 345.056854,243.453552 352.991486,247.175369   C352.991486,250.138107 352.896027,253.933929 353.013275,257.723145   C353.201141,263.795074 353.529846,269.862701 353.799011,275.932129   C353.832062,276.348755 353.865143,276.765350 353.471436,277.597321   C350.722076,279.102692 348.399506,280.192719 346.076935,281.282745  z"
   id="path70" />
<path
   fill="#099345"
   opacity="1.000000"
   stroke="none"
   d=" M176.004242,383.999725   C174.914948,380.150787 172.139221,378.366241 168.531570,376.913177   C158.395050,372.830292 148.422287,368.340851 137.990295,363.932190   C143.762131,356.089264 149.928589,348.325897 156.467178,340.796997   C158.011749,342.255676 158.960785,343.954071 160.392258,344.628418   C171.058609,349.653473 181.872513,354.367340 192.503250,359.464294   C194.349380,360.349426 195.548416,362.584259 196.861969,364.459595   C189.786499,371.148926 182.895370,377.574310 176.004242,383.999725  z"
   id="path71" />
<path
   fill="#15A64D"
   opacity="1.000000"
   stroke="none"
   d=" M129.823853,254.434464   C133.221359,251.960663 136.378937,252.365112 139.724640,254.027756   C148.780930,258.528229 157.914490,262.873901 167.043182,267.226868   C167.905350,267.638000 168.949356,267.667816 170.322723,267.848328   C174.505112,282.775818 184.044266,293.410858 196.586746,302.230072   C192.740997,301.223724 188.429428,300.422211 184.543060,298.674988   C169.923447,292.102325 155.471344,285.157806 140.877899,278.525513   C138.710846,277.540649 136.122070,277.483765 133.144104,276.659668   C132.021332,272.969940 131.482864,269.618042 130.855835,266.024780   C130.536362,265.538177 130.305450,265.292969 130.074524,265.047729   C129.947144,261.658203 129.819763,258.268677 129.823853,254.434464  z"
   id="path72" />
<path
   fill="#0D9A48"
   opacity="1.000000"
   stroke="none"
   d=" M197.046326,364.195679   C195.548416,362.584259 194.349380,360.349426 192.503250,359.464294   C181.872513,354.367340 171.058609,349.653473 160.392258,344.628418   C158.960785,343.954071 158.011749,342.255676 156.772873,340.618622   C160.146027,336.792542 163.585617,333.379364 167.543289,329.663544   C168.967590,328.547852 169.873810,327.734833 170.780029,326.921814   C185.088425,333.430420 199.422638,339.883911 213.656525,346.551575   C214.802979,347.088654 215.259735,349.098022 215.904785,351.044434   C215.108337,352.305908 214.444092,352.946198 213.451324,353.718384   C207.763962,357.298737 202.405136,360.747192 197.046326,364.195679  z"
   id="path73" />
<path
   fill="#717974"
   opacity="1.000000"
   stroke="none"
   d=" M178.019089,213.363647   C184.937057,201.890137 194.039780,192.966232 204.952942,185.321381   C220.416367,176.105881 236.843781,170.716003 254.695236,168.375427   C273.881134,166.817078 292.666809,167.776733 311.813324,169.704895   C313.418579,174.055862 311.414825,175.451859 307.322479,174.915070   C305.847137,174.721558 304.369476,174.546051 302.353333,174.026306   C301.223541,173.762726 300.633240,173.835144 300.042969,173.907547   C297.658630,173.718079 295.274323,173.528610 292.288971,172.983124   C290.475067,172.715729 289.262207,172.804367 288.049316,172.893005   C270.056000,172.414093 252.198883,173.112000 234.660843,177.848846   C210.733383,184.311386 191.340668,196.922455 178.405502,218.497711   C173.102524,227.342834 170.392105,237.046906 169.167526,247.600754   C168.619537,236.542023 171.918167,226.027786 176.790527,215.897186   C177.146637,215.156754 177.550430,214.439255 178.019089,213.363647  z"
   id="path74" />
<path
   fill="#606562"
   opacity="1.000000"
   stroke="none"
   d=" M213.779846,353.586487   C214.444092,352.946198 215.108337,352.305908 215.925980,351.439575   C227.569382,345.009735 239.059402,338.805969 250.791061,332.361145   C262.196564,326.245880 273.360382,320.371643 284.762543,314.254883   C295.541718,308.478790 306.082581,302.945190 317.019043,297.090454   C317.594299,296.641174 317.750305,296.488708 317.882599,296.311981   C318.485748,296.053589 319.088867,295.795197 319.932129,295.307739   C321.845032,294.396698 323.517822,293.714783 325.818054,293.139404   C326.977081,294.191681 327.508698,295.137482 328.040283,296.083252   C316.071991,302.441315 304.057678,308.714569 292.144958,315.175018   C266.629456,329.012390 241.166412,342.946442 215.275162,356.539001   C214.505554,355.353577 214.142700,354.470032 213.779846,353.586487  z"
   id="path75" />
<path
   fill="#4C504E"
   opacity="1.000000"
   stroke="none"
   d=" M213.451309,353.718384   C214.142700,354.470032 214.505554,355.353577 214.928528,356.585083   C202.342834,367.119324 189.165512,376.730438 177.267227,387.725616   C170.973221,393.541992 166.941315,401.793213 161.796875,408.878906   C160.891922,410.125305 159.657715,411.788025 158.368851,411.999664   C144.435638,414.287720 130.461044,416.323792 115.978012,418.507019   C116.083321,416.814575 116.160561,415.573151 116.179413,413.931702   C128.711075,411.672729 141.292511,409.752136 153.896072,407.989716   C158.056641,407.407898 160.966095,405.913788 163.292526,401.931885   C166.862076,395.822266 171.517319,390.346985 175.858032,384.301117   C182.895370,377.574310 189.786499,371.148926 196.861969,364.459595   C202.405136,360.747192 207.763962,357.298737 213.451309,353.718384  z"
   id="path76" />
<path
   fill="#29C056"
   opacity="1.000000"
   stroke="none"
   d=" M353.897522,275.478882   C353.529846,269.862701 353.201141,263.795074 353.013275,257.723145   C352.896027,253.933929 352.991486,250.138107 352.991486,247.175369   C345.056854,243.453552 337.702271,240.003799 330.164368,236.255615   C337.596558,231.695328 345.212067,227.433502 353.996033,222.517807   C353.996033,240.757797 353.996033,257.891724 353.897522,275.478882  z"
   id="path77" />
<path
   fill="#606562"
   opacity="1.000000"
   stroke="none"
   d=" M170.740997,326.601196   C169.873810,327.734833 168.967590,328.547852 167.868958,329.463104   C165.922180,327.883209 164.282181,326.058960 162.395721,324.541016   C143.892090,309.652374 131.598450,291.289185 130.218567,266.531891   C130.505951,266.138824 130.944382,266.266174 130.944382,266.266174   C131.482864,269.618042 132.021332,272.969940 132.718430,276.658508   C135.505798,288.603546 141.288422,298.577484 149.481949,306.996338   C155.115692,312.784973 161.510712,317.831757 167.549744,323.227722   C168.639618,324.201569 169.653183,325.260803 170.740997,326.601196  z"
   id="path78" />
<path
   fill="#717974"
   opacity="1.000000"
   stroke="none"
   d=" M328.402100,296.061890   C327.508698,295.137482 326.977081,294.191681 326.153625,293.066925   C332.436493,289.168030 339.011230,285.448151 345.831421,281.505493   C348.399506,280.192719 350.722076,279.102692 353.372711,277.899719   C354.507538,281.135712 353.409821,283.265076 350.168243,284.850616   C342.938660,288.386780 335.887695,292.287994 328.402100,296.061890  z"
   id="path79" />
<path
   fill="#7F9484"
   opacity="1.000000"
   stroke="none"
   d=" M288.350159,173.053223   C289.262207,172.804367 290.475067,172.715729 291.866211,172.842300   C290.913300,173.109497 289.782166,173.161484 288.350159,173.053223  z"
   id="path80" />
<path
   fill="#7F9484"
   opacity="1.000000"
   stroke="none"
   d=" M300.268158,174.051605   C300.633240,173.835144 301.223541,173.762726 301.930939,173.866333   C301.529816,174.093460 301.011597,174.144577 300.268158,174.051605  z"
   id="path81" />
<path
   fill="#36CE59"
   opacity="1.000000"
   stroke="none"
   d=" M228.744904,115.954041   C228.851746,116.313850 228.605118,116.441521 228.143585,116.271347   C228.174622,116.092484 228.328888,116.008621 228.744904,115.954041  z"
   id="path82" />
<path
   fill="#7F9484"
   opacity="1.000000"
   stroke="none"
   d=" M312.686401,116.631378   C312.619415,116.740532 312.392303,116.622192 312.392303,116.622192   C312.392303,116.622192 312.405731,116.350876 312.500061,116.336166   C312.594360,116.321457 312.753357,116.522232 312.686401,116.631378  z"
   id="path83" />
<path
   fill="#1BAD50"
   opacity="1.000000"
   stroke="none"
   d=" M130.855835,266.024780   C130.944382,266.266174 130.505951,266.138824 130.282028,266.095459   C130.011337,265.883636 129.964584,265.715240 129.996185,265.297272   C130.305450,265.292969 130.536362,265.538177 130.855835,266.024780  z"
   id="path84" />
<path
   fill="#717974"
   opacity="1.000000"
   stroke="none"
   d=" M317.704712,296.334961   C317.750305,296.488708 317.594299,296.641174 317.274048,296.852844   C317.176453,296.683533 317.307556,296.490723 317.704712,296.334961  z"
   id="path85" />
</svg>
